<?xml version="1.0" encoding="UTF-8"?>
<svg xmlns="http://www.w3.org/2000/svg" viewBox="0 0 149.19 149.8" width="800" height="800">
  <path d="M114.15,4.5c10.8,5.4,18.8,16.8,25.7,28.7,6.9,12,12.6,24.5,7.2,34-5.4,9.4-22.1,15.7-29.6,26.5-7.5,10.9-5.8,26.3-11.3,37.6-5.4,11.4-18,18.6-30.4,18.5-12.4-.2-24.7-7.9-38.3-14.5-13.5-6.7-28.2-12.5-34-23.1-5.8-10.7-2.6-26.3-2.3-41.7.3-15.5-2.2-30.7,3.7-41.2,5.8-10.5,20.1-16.2,33.4-20.3C51.45,4.9,63.55,2.4,76.45.9c13-1.4,26.8-1.8,37.7,3.6Z" fill="white"/>
</svg>