<svg xmlns="http://www.w3.org/2000/svg" width="80" height="87" viewBox="0 0 80 87">
<g clip-path="url(#clip0_27_22)">
<path d="M31.8701 37.6294C29.1866 37.6294 26.991 39.8199 26.991 42.4971C26.991 45.1743 29.1866 47.3648 31.8701 47.3648C34.5536 47.3648 36.7492 45.1743 36.7492 42.4971C36.7492 39.8199 34.5536 37.6294 31.8701 37.6294ZM33.0899 45.1338C31.7481 45.1338 30.6503 44.0385 30.6503 42.6999C30.6503 41.3613 31.7481 40.2661 33.0899 40.2661C34.4316 40.2661 35.5294 41.3613 35.5294 42.6999C35.5294 44.0385 34.4316 45.1338 33.0899 45.1338Z" fill="white"/>
<path d="M46.914 37.6294C44.2305 37.6294 42.0349 39.8199 42.0349 42.4971C42.0349 45.1743 44.2305 47.3648 46.914 47.3648C49.5975 47.3648 51.7932 45.1743 51.7932 42.4971C51.7932 39.8199 49.5975 37.6294 46.914 37.6294ZM45.6943 45.1338C44.3525 45.1338 43.2547 44.0385 43.2547 42.6999C43.2547 41.3613 44.3525 40.2661 45.6943 40.2661C47.036 40.2661 48.1338 41.3613 48.1338 42.6999C48.1338 44.0385 47.036 45.1338 45.6943 45.1338Z" fill="white"/>
<path d="M43.6657 21.1645L43.6614 21.1624C43.6614 21.1624 43.6635 21.1624 43.6657 21.1645Z" fill="black"/>
<path d="M75.2336 57.9705L75.2133 57.9502C74.4611 56.7941 73.1803 55.0296 73.9528 57.1592C74.7254 59.2888 73.221 62.6556 70.0292 64.3796C68.1995 65.3734 58.8682 70.4034 54.2127 64.3796C48.3578 56.8549 56.8556 61.3981 60.0677 61.5604C63.2594 61.7226 62.7105 61.5604 66.8781 60.3029C71.0457 59.0454 71.0457 54.34 72.0215 50.2633C72.9973 46.1866 70.6188 42.1099 69.9276 39.8991C69.3787 38.1346 69.0534 34.2607 68.9517 32.5164C68.9517 32.1919 68.5655 32.0702 68.4232 32.3745C67.7116 33.8956 66.4715 36.5526 66.1666 37.5464C65.7193 38.9661 65.7803 42.8806 66.1666 46.0243C66.5528 49.168 63.4017 55.4352 59.0715 55.4352C54.7413 55.4352 54.599 54.198 52.5254 52.6768L58.7666 49.5534L53.2369 31.7457L52.7693 30.6505L52.7287 30.5491L50.899 26.3304L53.9891 30.4882L65.1704 29.0279C66.8375 28.8048 67.5287 26.7766 66.3495 25.58L41.4254 0.594472C40.6325 -0.19653 39.3314 -0.19653 38.5385 0.594472L13.655 25.6023C12.4759 26.7989 13.1671 28.8271 14.8342 29.0502L25.5885 30.4497L28.638 26.3527L26.788 30.612H26.7677C26.7677 30.6322 26.544 31.1596 26.544 31.1596L21.0957 49.5757L26.6457 52.3543C25.1616 54.0378 23.1083 55.4575 20.9127 55.4575C16.5825 55.4575 13.4314 49.1903 13.8177 46.0466C14.2039 42.9029 14.2649 38.9885 13.8177 37.5687C13.5127 36.5749 12.2726 33.9179 11.5611 32.3968C11.4188 32.1128 11.0325 32.2142 11.0325 32.5388C10.9309 34.2627 10.6056 38.1569 10.0567 39.9214C9.36547 42.1119 6.9869 46.2089 7.96272 50.2856C8.93855 54.3623 8.93855 59.0677 13.1061 60.3252C17.2737 61.5827 16.7248 61.745 19.9166 61.5827C23.1287 61.4204 31.6061 56.8773 25.7715 64.4019C21.0957 70.4257 11.7644 65.3957 9.95503 64.4019C6.74294 62.6779 5.23855 59.3111 6.0314 57.1815C6.80393 55.0519 5.52316 56.8164 4.77097 57.9725C3.8358 59.6559 2.27042 63.8137 3.38855 67.0791C4.77097 71.1558 10.6869 75.3948 15.0781 75.7193C23.7385 76.3481 30.1017 72.5756 32.0534 63.327C33.6188 55.924 33.7204 60.2441 33.5781 63.327C33.1105 66.207 31.6874 72.4945 29.6748 74.6241C27.1743 77.281 23.1287 79.9583 20.9127 79.796C18.6765 79.6337 15.9116 78.863 15.4847 78.5385C15.0578 78.2343 14.2446 77.9098 15.0578 80.2625C15.932 82.7775 19.4083 86.0632 22.7221 86.8542C25.7105 87.564 33.7204 85.7589 36.6479 77.6055C39.5754 69.4521 39.4331 62.8605 39.4331 62.3737C39.4331 61.8869 40.5512 61.7247 40.5715 62.3534C40.5715 62.8402 40.4292 69.4319 43.3567 77.6055C46.2842 85.7589 54.2737 87.5843 57.2825 86.8542C60.5962 86.0632 64.0726 82.7775 64.9468 80.2625C65.76 77.9098 64.9468 78.214 64.5199 78.5385C64.1133 78.863 61.3281 79.6337 59.0918 79.796C56.8556 79.9583 52.8303 77.281 50.3298 74.6241C48.3171 72.4945 46.894 66.207 46.4265 63.327C46.2842 60.2441 46.4061 55.924 47.9512 63.327C49.9028 72.5959 56.266 76.3481 64.9265 75.7193C69.3177 75.3948 75.2336 71.1761 76.616 67.0791C77.7342 63.8137 76.1484 59.6559 75.2336 57.9725V57.9705ZM38.9858 19.6475C38.9858 19.611 38.9878 19.5744 38.9919 19.54C39.0509 19.0836 39.4798 18.7287 40.0003 18.7287C40.5207 18.7287 40.9415 19.0775 41.0066 19.5278C41.0106 19.5684 41.0147 19.6069 41.0147 19.6475V26.3345C41.0147 26.3547 41.0147 26.373 41.0127 26.3913C40.9801 26.874 40.539 27.2532 40.0003 27.2532C39.7197 27.2532 39.4656 27.1498 39.2826 26.9835C39.1139 26.8293 39.0041 26.6204 38.9878 26.3892C38.9878 26.371 38.9858 26.3527 38.9858 26.3324V19.6454V19.6475ZM35.422 21.2477C35.422 21.2477 35.422 21.2599 35.42 21.268C35.6294 21.0997 35.8957 20.9982 36.1844 20.9982C36.8573 20.9982 37.4021 21.5418 37.4021 22.2131C37.4021 22.4545 37.331 22.6796 37.209 22.8683C37.0565 22.992 36.9101 23.1299 36.776 23.2739C36.4853 23.5862 36.2393 23.9392 36.0522 24.3265C35.7717 24.8985 35.6151 25.5414 35.6151 26.2209C35.6151 28.6142 37.5587 30.5531 39.9576 30.5531C42.3565 30.5531 44.3 28.6142 44.3 26.2209C44.3 25.5414 44.1434 24.8985 43.8629 24.3265C43.6738 23.9412 43.4319 23.5862 43.1412 23.2759C43.0212 23.1441 42.8911 23.0224 42.7549 22.9088C42.7549 22.9088 42.7549 22.9088 42.7549 22.9068C42.6187 22.708 42.5415 22.4667 42.5415 22.2071C42.5415 21.5175 43.1026 20.9557 43.7958 20.9557C44.0499 20.9557 44.2857 21.0327 44.4829 21.1605L44.487 21.1646C45.8694 22.3957 46.7395 24.1866 46.7395 26.1803C46.7395 29.894 43.7226 32.9018 40.0023 32.9018C36.282 32.9018 33.265 29.8919 33.265 26.1803C33.265 24.2312 34.0965 22.4748 35.4261 21.2477H35.422ZM31.8704 47.3629C29.1869 47.3629 26.9913 45.1725 26.9913 42.4952C26.9913 39.818 29.1869 37.6275 31.8704 37.6275C34.5539 37.6275 36.7495 39.818 36.7495 42.4952C36.7495 45.1725 34.5539 47.3629 31.8704 47.3629ZM43.0924 49.8982C42.8484 51.034 41.71 52.5957 40.4089 52.5349C37.9693 52.4334 35.2248 51.6222 35.2248 50.8109C35.2248 49.9996 35.6721 49.959 36.5666 50.2633C37.4204 50.5472 38.5995 50.6081 40.0429 49.9388C40.3682 49.7968 40.6935 49.6142 41.0188 49.3911C42.7874 48.2553 43.2957 48.9044 43.0924 49.8982ZM46.9144 47.3629C44.2309 47.3629 42.0352 45.1725 42.0352 42.4952C42.0352 39.818 44.2309 37.6275 46.9144 37.6275C49.5979 37.6275 51.7935 39.818 51.7935 42.4952C51.7935 45.1725 49.5979 47.3629 46.9144 47.3629Z" fill="#55A6DD"/>
</g>
<path d="M1.74 81C1.54 81 1.44 80.9 1.44 80.7V65.304C1.44 65.104 1.54 65.004 1.74 65.004H5.136C5.336 65.004 5.436 65.104 5.436 65.304V80.7C5.436 80.9 5.336 81 5.136 81H1.74ZM8.60719 81C8.40719 81 8.30719 80.9 8.30719 80.7V65.304C8.30719 65.104 8.40719 65.004 8.60719 65.004H12.0032C12.2032 65.004 12.3032 65.104 12.3032 65.304V71.664H13.7912L14.5832 68.676L15.3032 65.16C15.3192 65.112 15.3552 65.076 15.4112 65.052C15.4752 65.02 15.5672 65.004 15.6872 65.004H19.1432C19.3432 65.004 19.4432 65.104 19.4432 65.304V66.804C19.4432 66.892 19.4312 66.98 19.4072 67.068C19.3832 67.148 19.3632 67.22 19.3472 67.284L17.8832 70.8L16.8632 72.72L17.9072 74.616L19.6712 78.624C19.7032 78.68 19.7272 78.74 19.7432 78.804C19.7592 78.868 19.7672 78.96 19.7672 79.08V80.7C19.7672 80.9 19.6672 81 19.4672 81H15.8912C15.8352 81 15.7632 80.992 15.6752 80.976C15.5952 80.952 15.5472 80.9 15.5312 80.82L14.6432 77.016L13.9832 74.844H12.3032V80.7C12.3032 80.9 12.2032 81 12.0032 81H8.60719ZM22.3748 81C22.1748 81 22.0748 80.9 22.0748 80.7V69.576C22.0748 69.472 22.1148 69.352 22.1948 69.216L25.0388 65.184C25.1268 65.064 25.2548 65.004 25.4228 65.004H29.3948C29.5708 65.004 29.6988 65.064 29.7788 65.184L32.6348 69.216C32.7148 69.328 32.7548 69.448 32.7548 69.576V80.7C32.7548 80.9 32.6548 81 32.4548 81H29.0588C28.8588 81 28.7588 80.9 28.7588 80.7V75.6H26.0828V80.7C26.0828 80.9 25.9828 81 25.7828 81H22.3748ZM27.4148 73.02C28.1508 73.02 28.6468 72.86 28.9028 72.54C29.1668 72.212 29.2988 71.592 29.2988 70.68C29.2988 69.768 29.1668 69.152 28.9028 68.832C28.6468 68.504 28.1508 68.34 27.4148 68.34C26.6868 68.34 26.1908 68.504 25.9268 68.832C25.6708 69.152 25.5428 69.768 25.5428 70.68C25.5428 71.592 25.6708 72.212 25.9268 72.54C26.1908 72.86 26.6868 73.02 27.4148 73.02ZM35.505 81C35.305 81 35.205 80.9 35.205 80.7V78.444C35.205 78.34 35.209 78.256 35.217 78.192C35.233 78.128 35.281 78.076 35.361 78.036L38.505 76.596V74.46L35.409 72.54C35.273 72.46 35.205 72.34 35.205 72.18V67.776C35.205 67.648 35.213 67.556 35.229 67.5C35.245 67.436 35.305 67.368 35.409 67.296L38.565 65.16C38.645 65.112 38.717 65.076 38.781 65.052C38.853 65.02 38.941 65.004 39.045 65.004H42.285C42.485 65.004 42.585 65.104 42.585 65.304V67.344C42.585 67.52 42.525 67.64 42.405 67.704L39.261 69V71.22L42.405 73.02C42.525 73.076 42.585 73.204 42.585 73.404V78.624C42.585 78.688 42.573 78.756 42.549 78.828C42.533 78.9 42.493 78.952 42.429 78.984L38.661 80.856C38.613 80.88 38.553 80.912 38.481 80.952C38.417 80.984 38.353 81 38.289 81H35.505ZM48.1881 81C48.0041 81 47.8441 80.932 47.7081 80.796L45.3081 78.396C45.1721 78.268 45.1041 78.108 45.1041 77.916V68.076C45.1041 67.892 45.1721 67.732 45.3081 67.596L47.7081 65.196C47.8441 65.068 48.0041 65.004 48.1881 65.004H52.9041C53.0961 65.004 53.2561 65.068 53.3841 65.196L55.7841 67.596C55.9201 67.732 55.9881 67.892 55.9881 68.076V77.916C55.9881 78.108 55.9201 78.268 55.7841 78.396L53.3841 80.796C53.2561 80.932 53.0961 81 52.9041 81H48.1881ZM49.6041 77.796H51.4881C51.8241 77.796 51.9921 77.572 51.9921 77.124V68.88C51.9921 68.424 51.8241 68.196 51.4881 68.196H49.6041C49.2761 68.196 49.1121 68.424 49.1121 68.88V77.124C49.1121 77.572 49.2761 77.796 49.6041 77.796ZM59.1619 81C58.9619 81 58.8619 80.9 58.8619 80.7V65.304C58.8619 65.104 58.9619 65.004 59.1619 65.004H67.3819C67.5819 65.004 67.6819 65.104 67.6819 65.304V67.896C67.6819 68.096 67.5819 68.196 67.3819 68.196H62.8579V72.204H66.7819C66.9819 72.204 67.0819 72.304 67.0819 72.504V75.096C67.0819 75.296 66.9819 75.396 66.7819 75.396H62.8579V80.7C62.8579 80.9 62.7579 81 62.5579 81H59.1619ZM72.2963 81C72.0963 81 71.9963 80.9 71.9963 80.7V68.196H69.8963C69.6963 68.196 69.5963 68.096 69.5963 67.896V65.304C69.5963 65.104 69.6963 65.004 69.8963 65.004H78.0923C78.2923 65.004 78.3923 65.104 78.3923 65.304V67.896C78.3923 68.096 78.2923 68.196 78.0923 68.196H75.9923V80.7C75.9923 80.9 75.8923 81 75.6923 81H72.2963Z" fill="white"/>
<defs>
<clipPath id="clip0_27_22">
<rect width="74" height="87" fill="white" transform="translate(3)"/>
</clipPath>
</defs>
</svg>
