<svg xmlns="http://www.w3.org/2000/svg" viewBox="0 0 37.85 40.38" fill="#fff" height="27" width="27">
  <path class="cls-1" d="M15,0C10.03,0,6,4.03,6,9s4.03,9,9,9,9-4.03,9-9S19.97,0,15,0ZM15,15.5c-3.59,0-6.5-2.91-6.5-6.5s2.91-6.5,6.5-6.5,6.5,2.91,6.5,6.5-2.91,6.5-6.5,6.5Z"/>
  <path class="cls-1" d="M3.06,24.78c-.25.28-.56.82-.56,2.06,0,4.8,5.22,9.66,13,9.66.5,0,.98-.02,1.46-.06l1.7,2.3c-1.02.17-2.08.26-3.16.26-8.56,0-15.5-5.45-15.5-12.16,0-5.98,5.48-5.91,12.71-5.82.91.01,1.84.02,2.79.02s1.88-.01,2.79-.02h.47s.09-.01.13,0c-.04.03-.07.06-.1.1-.17.18-.33.36-.49.55h-.01c-.49.58-.93,1.2-1.31,1.86-.48.01-.97.01-1.48.01-1.03,0-1.98-.01-2.87-.02-1.09-.01-2.11-.03-3.14-.02-1.82.02-3.28.12-4.42.36-1.14.25-1.71.6-2.01.92Z"/>
  <path class="cls-2" d="M35.4,30c0-1.64,1.01-3.05,2.45-3.63-.45-1.19-1.1-2.27-1.93-3.21-.63.43-1.39.68-2.2.68-2.17,0-3.92-1.76-3.92-3.92,0-.05,0-.11.01-.16-.55-.09-1.12-.14-1.69-.14s-1.14.05-1.69.14c.01.05.01.11.01.16,0,.51-.1.99-.28,1.44-.4,1.03-1.24,1.85-2.29,2.23-.42.17-.88.25-1.35.25-.57,0-1.11-.12-1.59-.34h-.01c-.21-.1-.41-.21-.6-.34-.11.11-.2.23-.3.35-.69.85-1.24,1.82-1.63,2.86,1.44.58,2.45,1.99,2.45,3.63s-1.01,3.05-2.45,3.63c.32.85.74,1.64,1.26,2.37.21.29.43.57.67.84.63-.43,1.39-.68,2.2-.68.74,0,1.43.21,2.02.56,1.14.69,1.9,1.93,1.9,3.36,0,.05,0,.11-.01.16.55.09,1.12.14,1.69.14s1.14-.05,1.69-.14c-.01-.05-.01-.11-.01-.16,0-2.17,1.75-3.92,3.92-3.92.81,0,1.57.25,2.2.68.83-.94,1.48-2.02,1.93-3.21-1.44-.58-2.45-1.98-2.45-3.63ZM29.15,32.61c-.32.12-.67.19-1.03.19-.69,0-1.32-.24-1.8-.66-.61-.51-1-1.28-1-2.14,0-1.55,1.25-2.8,2.8-2.8.12,0,.24.01.36.02,1.04.13,1.91.84,2.26,1.79.12.31.18.64.18.99,0,1.19-.74,2.2-1.77,2.61Z"/>
</svg>