<?xml version="1.0" encoding="UTF-8"?>
<svg id="_2" data-name="2" xmlns="http://www.w3.org/2000/svg" version="1.1" viewBox="0 0 32 32"  width="24" height="24">
  <defs>
    <style>
      .cls-1 {
        fill: #fbb034;
      }

      .cls-1, .cls-2 {
        stroke-width: 0px;
      }

      .cls-2 {
        fill: #ffce80;
      }
    </style>
  </defs>
  <g>
    <path class="cls-1" d="M29.8,23.7H2.2c-1.2,0-2.2,1-2.2,2.2s1,2.2,2.2,2.2h27.6c1.2,0,2.2-1,2.2-2.2s-1-2.2-2.2-2.2Z"/>
    <path class="cls-1" d="M13.9,7.2h4.2c.9,0,1.7-.7,1.7-1.7s-.7-1.7-1.7-1.7h-4.2c-.9,0-1.7.7-1.7,1.7,0,.9.7,1.7,1.7,1.7Z"/>
    <path class="cls-1" d="M16,8.8c-7.5,0-13.5,6.1-13.5,13.5h27.1c0-7.5-6.1-13.5-13.5-13.5ZM10.3,20.1h-4.4c0-4.4,3.3-8.1,7.6-8.6l-3.2,8.6Z"/>
  </g>
  <path class="cls-2" d="M10.3,20.1l3.2-8.6c-4.3.5-7.6,4.1-7.6,8.6h4.4Z"/>
</svg>