<?xml version="1.0" encoding="UTF-8"?>
<svg id="_レイヤー_1" data-name="レイヤー 1" xmlns="http://www.w3.org/2000/svg" viewBox="0 0 222.61 221.59">
  <defs>
    <style>
      .cls-1 {
        fill: #fff;
        stroke-width: 0px;
      }
    </style>
  </defs>
  <path class="cls-1" d="M0,159.7h10.72v33.61s-1.37,18.29,18.29,18.29h34.09v9.96l-35.14.03s-27.72-.03-27.72-26.31-.24-35.57-.24-35.57Z"/>
  <path class="cls-1" d="M222.61,61.88h-10.72V28.28s1.37-18.29-18.29-18.29h-34.09V.03l35.14-.03s27.72.03,27.72,26.31.24,35.57.24,35.57Z"/>
  <path class="cls-1" d="M0,61.88h10.72V28.28s-1.37-18.29,18.29-18.29h34.09V.03l-35.14-.03S.24.03.24,26.31s-.24,35.57-.24,35.57Z"/>
  <path class="cls-1" d="M222.61,159.7h-10.72v33.61s1.37,18.29-18.29,18.29h-34.09v9.96l35.14.03s27.72-.03,27.72-26.31.24-35.57.24-35.57Z"/>
  <g>
    <path class="cls-1" d="M31.55,30.94v47.79h47.79V30.94H31.55ZM71.62,69.99h-31.88v-31.88h31.88v31.88Z"/>
    <rect class="cls-1" x="47.86" y="45.63" width="16.09" height="16.09"/>
  </g>
  <g>
    <path class="cls-1" d="M143.27,30.15v47.79h47.79V30.15h-47.79ZM183.34,69.2h-31.88v-31.88h31.88v31.88Z"/>
    <rect class="cls-1" x="159.35" y="45.22" width="16.09" height="16.09"/>
  </g>
  <g>
    <path class="cls-1" d="M31.78,141.6v47.79h47.79v-47.79H31.78ZM71.85,180.65h-31.88v-31.88h31.88v31.88Z"/>
    <rect class="cls-1" x="47.4" y="157.01" width="16.09" height="16.09"/>
  </g>
  <polygon class="cls-1" points="87.54 93.67 87.54 117.83 79.34 117.83 79.34 101.87 63.29 101.87 63.29 109.62 63.05 109.62 63.05 110.07 63.29 110.07 63.29 109.62 71.25 109.62 71.25 117.63 71.14 117.63 71.14 117.83 63.29 117.83 63.29 117.31 63.05 117.31 63.05 117.83 63.29 117.83 63.29 133.18 39.04 133.18 39.04 124.97 55.09 124.97 55.09 125.52 55.42 125.52 55.42 124.97 55.09 124.97 55.09 117.83 55.42 117.83 55.42 117.31 55.09 117.31 55.09 117.83 31.38 117.83 31.38 109.62 39.04 109.62 39.04 101.87 47.24 101.87 47.24 109.62 47.21 109.62 47.21 110.07 47.24 110.07 47.24 109.62 55.09 109.62 55.09 110.07 55.42 110.07 55.42 109.62 55.09 109.62 55.09 93.67 39.04 93.67 39.04 85.46 63.29 85.46 63.29 93.67 71.14 93.67 71.14 85.46 79.34 85.46 79.34 93.67 87.54 93.67"/>
  <rect class="cls-1" x="47.21" y="109.62" width=".03" height=".45"/>
  <rect class="cls-1" x="47.21" y="109.62" width=".03" height=".45"/>
  <rect class="cls-1" x="47.21" y="109.62" width=".03" height=".45"/>
  <rect class="cls-1" x="55.09" y="109.62" width=".33" height=".45"/>
  <rect class="cls-1" x="55.09" y="117.31" width=".33" height=".52"/>
  <rect class="cls-1" x="55.09" y="109.62" width=".33" height=".45"/>
  <rect class="cls-1" x="63.05" y="109.62" width=".24" height=".45"/>
  <rect class="cls-1" x="55.09" y="109.62" width=".33" height=".45"/>
  <rect class="cls-1" x="55.09" y="117.31" width=".33" height=".52"/>
  <rect class="cls-1" x="63.05" y="109.62" width=".24" height=".45"/>
  <rect class="cls-1" x="63.05" y="117.31" width=".24" height=".52"/>
  <rect class="cls-1" x="55.09" y="117.31" width=".33" height=".52"/>
  <rect class="cls-1" x="55.09" y="124.97" width=".33" height=".55"/>
  <rect class="cls-1" x="63.05" y="117.31" width=".24" height=".52"/>
  <rect class="cls-1" x="55.09" y="124.97" width=".33" height=".55"/>
  <rect class="cls-1" x="55.09" y="124.97" width=".33" height=".55"/>
  <rect class="cls-1" x="71.14" y="117.63" width="8.2" height="8.21"/>
  <rect class="cls-1" x="63.05" y="109.62" width=".24" height=".45"/>
  <rect class="cls-1" x="63.05" y="117.31" width=".24" height=".52"/>
  <rect class="cls-1" x="71.14" y="117.63" width=".11" height=".2"/>
  <rect class="cls-1" x="87.54" y="117.31" width="8.2" height="8.21"/>
  <rect class="cls-1" x="87.54" y="85.46" width="8.2" height="8.2"/>
  <rect class="cls-1" x="87.54" y="100.99" width="8.2" height="8.2"/>
  <rect class="cls-1" x="103.95" y="85.46" width="8.2" height="8.2"/>
  <rect class="cls-1" x="112.15" y="77.26" width="8.2" height="8.2"/>
  <rect class="cls-1" x="126.7" y="61.54" width="1.85" height=".55"/>
  <rect class="cls-1" x="118.91" y="61.54" width="1.44" height=".55"/>
  <rect class="cls-1" x="126.7" y="61.54" width=".41" height=".55"/>
  <rect class="cls-1" x="110.71" y="45.68" width=".38" height=".54"/>
  <rect class="cls-1" x="110.71" y="45.68" width=".38" height=".54"/>
  <rect class="cls-1" x="102.89" y="38.02" width=".22" height=".34"/>
  <rect class="cls-1" x="110.71" y="45.68" width=".38" height=".54"/>
  <rect class="cls-1" x="102.89" y="38.02" width=".22" height=".34"/>
  <polygon class="cls-1" points="118.91 45.68 118.91 53.88 102.89 53.88 102.89 38.36 103.11 38.36 103.11 38.02 102.89 38.02 102.89 38.36 94.91 38.36 94.91 30.15 111.09 30.15 111.09 45.68 110.71 45.68 110.71 46.22 111.09 46.22 111.09 45.68 118.91 45.68"/>
  <rect class="cls-1" x="102.89" y="38.02" width=".22" height=".34"/>
  <polygon class="cls-1" points="94.91 38.36 94.91 53.68 94.69 53.68 94.69 53.88 86.71 53.88 86.71 38.36 94.91 38.36"/>
  <rect class="cls-1" x="94.69" y="53.68" width=".22" height=".2"/>
  <polygon class="cls-1" points="102.89 53.68 102.89 69.75 87.09 69.75 87.09 61.54 94.69 61.54 94.69 61.88 95.29 61.88 95.29 61.54 94.69 61.54 94.69 53.88 94.91 53.88 94.91 53.68 102.89 53.68"/>
  <rect class="cls-1" x="94.69" y="53.68" width=".22" height=".2"/>
  <rect class="cls-1" x="94.69" y="61.54" width=".6" height=".34"/>
  <rect class="cls-1" x="94.69" y="61.54" width=".6" height=".34"/>
  <rect class="cls-1" x="94.69" y="61.54" width=".6" height=".34"/>
  <rect class="cls-1" x="126.7" y="29.82" width="8.2" height="15.96"/>
  <rect class="cls-1" x="126.7" y="61.54" width="1.85" height=".55"/>
  <polygon class="cls-1" points="134.9 53.88 134.9 62.09 128.55 62.09 128.55 61.54 126.7 61.54 126.7 62.09 128.55 62.09 128.55 77.4 120.35 77.4 120.35 69.75 112.15 69.75 112.15 61.54 118.91 61.54 118.91 62.09 120.35 62.09 120.35 61.54 118.91 61.54 118.91 53.88 134.9 53.88"/>
  <rect class="cls-1" x="118.91" y="61.54" width="1.44" height=".55"/>
  <rect class="cls-1" x="150.53" y="85.46" width="8.2" height="8.2"/>
  <rect class="cls-1" x="166.77" y="85.46" width="8.2" height="8.2"/>
  <polygon class="cls-1" points="144.95 85.46 144.95 93.67 120.35 93.67 120.35 85.46 128.55 85.46 128.55 77.26 136.75 77.26 136.75 85.46 144.95 85.46"/>
  <rect class="cls-1" x="95.74" y="77.26" width="8.2" height="8.2"/>
  <rect class="cls-1" x="87.54" y="133.72" width="8.2" height="8.2"/>
  <rect class="cls-1" x="87.54" y="149.16" width="8.2" height="8.2"/>
  <rect class="cls-1" x="87.54" y="165.06" width="8.2" height="8.2"/>
  <rect class="cls-1" x="79.34" y="125.51" width="8.2" height="8.2"/>
  <rect class="cls-1" x="30.84" y="93.66" width="8.2" height="8.2"/>
  <path class="cls-1" d="M162.1,153.27c3.87-5.34,6.15-11.9,6.15-18.99,0-17.91-14.51-32.42-32.42-32.42s-32.41,14.51-32.41,32.42,14.51,32.41,32.41,32.41c7.01,0,13.49-2.22,18.79-6l28.71,28.7,7.73-7.09-28.96-29.03ZM135.83,156.93c-12.51,0-22.65-10.14-22.65-22.65s10.14-22.66,22.65-22.66,22.65,10.14,22.65,22.66-10.14,22.65-22.65,22.65Z"/>
</svg>